<svg xmlns="http://www.w3.org/2000/svg" xmlns:xlink="http://www.w3.org/1999/xlink" width="500" zoomAndPan="magnify" viewBox="0 0 375 374.999991" height="500" preserveAspectRatio="xMidYMid meet" version="1.2"><defs><clipPath id="088c1343f1"><path d="M 284 78.65625 L 304 78.65625 L 304 102 L 284 102 Z M 284 78.65625 "/></clipPath><clipPath id="cc37737214"><path d="M 36.058594 183 L 58 183 L 58 207 L 36.058594 207 Z M 36.058594 183 "/></clipPath><clipPath id="40bfc30741"><path d="M 36.058594 155 L 52 155 L 52 180 L 36.058594 180 Z M 36.058594 155 "/></clipPath><clipPath id="d48e4b0be9"><path d="M 71 78.65625 L 91 78.65625 L 91 102 L 71 102 Z M 71 78.65625 "/></clipPath><clipPath id="57746beaf6"><path d="M 175.910156 260.019531 L 199 260.019531 L 199 281.769531 L 175.910156 281.769531 Z M 175.910156 260.019531 "/></clipPath><clipPath id="7b95a86f71"><path d="M 101.175781 95.132812 L 270.675781 95.132812 L 270.675781 188.882812 L 101.175781 188.882812 Z M 101.175781 95.132812 "/></clipPath></defs><g id="dfc67c5595"><path style=" stroke:none;fill-rule:nonzero;fill:#f9971d;fill-opacity:1;" d="M 187.503906 290.160156 C 189.261719 293.542969 191.164062 296.886719 193.207031 300.195312 C 198.527344 309.308594 216.839844 315.648438 235.101562 311.394531 C 232.160156 308.808594 229.335938 306.140625 226.636719 303.394531 C 219.035156 295.957031 204.5625 292.210938 187.496094 290.160156 Z M 187.503906 290.160156 "/><path style=" stroke:none;fill-rule:nonzero;fill:#f9971d;fill-opacity:1;" d="M 210.992188 290.773438 C 212.726562 287.476562 214.289062 284.160156 215.683594 280.8125 C 219.75 271.691406 229.609375 264.261719 240.414062 259.511719 C 240.3125 263.007812 240.058594 266.527344 239.652344 270.066406 C 238.824219 279.660156 227.453125 289.730469 211 290.765625 Z M 210.992188 290.773438 "/><path style=" stroke:none;fill-rule:nonzero;fill:#f9971d;fill-opacity:1;" d="M 218.410156 290.050781 C 220.652344 292.777344 223.003906 295.445312 225.472656 298.058594 C 231.996094 305.300781 248.8125 307.355469 263.953125 300.015625 C 260.824219 298.1875 257.789062 296.269531 254.84375 294.257812 C 246.628906 288.871094 233.140625 288.261719 218.410156 290.050781 Z M 218.410156 290.050781 "/><path style=" stroke:none;fill-rule:nonzero;fill:#f9971d;fill-opacity:1;" d="M 238.515625 285.710938 C 239.289062 282.335938 239.921875 278.964844 240.414062 275.605469 C 241.984375 266.386719 249.195312 257.558594 258.195312 251.140625 C 258.765625 254.394531 259.21875 257.695312 259.546875 261.042969 C 260.660156 270.078125 252.484375 281.441406 238.511719 285.710938 Z M 238.515625 285.710938 "/><path style=" stroke:none;fill-rule:nonzero;fill:#f9971d;fill-opacity:1;" d="M 246.265625 283.011719 C 248.820312 285.039062 251.460938 287 254.1875 288.890625 C 261.464844 294.179688 276.519531 292.730469 288.589844 283.25 C 285.417969 282.148438 282.304688 280.953125 279.257812 279.664062 C 270.808594 276.265625 258.585938 278.300781 246.261719 283.011719 Z M 246.265625 283.011719 "/><path style=" stroke:none;fill-rule:nonzero;fill:#f9971d;fill-opacity:1;" d="M 262.925781 274.96875 C 262.894531 271.71875 262.75 268.503906 262.492188 265.320312 C 261.957031 256.558594 266.730469 247.007812 273.898438 239.398438 C 275.011719 242.300781 276.035156 245.261719 276.960938 248.285156 C 279.664062 256.414062 274.40625 268.3125 262.933594 274.96875 Z M 262.925781 274.96875 "/><path style=" stroke:none;fill-rule:nonzero;fill:#f9971d;fill-opacity:1;" d="M 270.601562 270.074219 C 273.3125 271.402344 276.085938 272.65625 278.917969 273.835938 C 286.535156 277.191406 299.597656 272.976562 308.71875 262.1875 C 305.625 261.757812 302.566406 261.238281 299.550781 260.628906 C 291.226562 259.089844 280.511719 263.273438 270.601562 270.074219 Z M 270.601562 270.074219 "/><path style=" stroke:none;fill-rule:nonzero;fill:#f9971d;fill-opacity:1;" d="M 283.820312 259.4375 C 283.128906 256.480469 282.351562 253.574219 281.484375 250.710938 C 279.246094 242.808594 281.800781 233.101562 287.109375 224.753906 C 288.648438 227.222656 290.113281 229.765625 291.507812 232.371094 C 295.441406 239.351562 292.808594 251.152344 283.820312 259.4375 Z M 283.820312 259.4375 "/><path style=" stroke:none;fill-rule:nonzero;fill:#f9971d;fill-opacity:1;" d="M 290.949219 252.257812 C 293.671875 252.921875 296.433594 253.507812 299.230469 254.015625 C 306.796875 255.546875 317.707031 249.261719 324.015625 237.882812 C 321.101562 238.054688 318.210938 238.140625 315.351562 238.144531 C 307.472656 238.277344 298.46875 244.105469 290.949219 252.257812 Z M 290.949219 252.257812 "/><path style=" stroke:none;fill-rule:nonzero;fill:#f9971d;fill-opacity:1;" d="M 300.785156 240.027344 C 299.578125 237.476562 298.3125 234.980469 296.984375 232.542969 C 293.429688 225.785156 294.003906 216.386719 297.488281 207.703125 C 299.324219 209.699219 301.109375 211.765625 302.847656 213.898438 C 307.675781 219.601562 307.355469 230.792969 300.792969 240.027344 Z M 300.785156 240.027344 "/><path style=" stroke:none;fill-rule:nonzero;fill:#f9971d;fill-opacity:1;" d="M 306.832031 230.589844 C 309.433594 230.644531 312.054688 230.625 314.691406 230.539062 C 321.851562 230.425781 330.503906 222.734375 334.171875 211.355469 C 331.554688 212.039062 328.941406 212.648438 326.328125 213.179688 C 319.171875 214.75 312.027344 221.734375 306.832031 230.589844 Z M 306.832031 230.589844 "/><path style=" stroke:none;fill-rule:nonzero;fill:#f9971d;fill-opacity:1;" d="M 313.40625 217.617188 C 311.828125 215.542969 310.207031 213.527344 308.539062 211.566406 C 304.042969 206.121094 302.886719 197.398438 304.601562 188.75 C 306.621094 190.253906 308.609375 191.824219 310.566406 193.460938 C 315.964844 197.800781 317.644531 208.015625 313.40625 217.617188 Z M 313.40625 217.617188 "/><path style=" stroke:none;fill-rule:nonzero;fill:#f9971d;fill-opacity:1;" d="M 317.792969 206.101562 C 320.152344 205.628906 322.519531 205.09375 324.890625 204.496094 C 331.351562 202.976562 337.679688 194.472656 338.933594 183.589844 C 336.6875 184.683594 334.425781 185.710938 332.160156 186.679688 C 325.964844 189.421875 320.773438 197.097656 317.792969 206.09375 Z M 317.792969 206.101562 "/><path style=" stroke:none;fill-rule:nonzero;fill:#f9971d;fill-opacity:1;" d="M 321.273438 193.132812 C 319.457031 191.566406 317.613281 190.054688 315.742188 188.597656 C 310.660156 184.53125 308.035156 176.765625 308.058594 168.46875 C 310.160156 169.492188 312.242188 170.574219 314.308594 171.714844 C 319.976562 174.71875 323.320312 183.671875 321.273438 193.132812 Z M 321.273438 193.132812 "/><path style=" stroke:none;fill-rule:nonzero;fill:#f9971d;fill-opacity:1;" d="M 323.355469 179.8125 C 325.382812 178.914062 327.402344 177.964844 329.410156 176.960938 C 334.90625 174.320312 338.945312 165.53125 338.03125 155.554688 C 336.21875 156.945312 334.378906 158.292969 332.519531 159.589844 C 327.476562 163.214844 324.265625 171.144531 323.347656 179.8125 Z M 323.355469 179.8125 "/><path style=" stroke:none;fill-rule:nonzero;fill:#f9971d;fill-opacity:1;" d="M 323.976562 167.464844 C 322.046875 166.40625 320.101562 165.390625 318.144531 164.425781 C 312.808594 161.71875 308.976562 155.113281 307.433594 147.4375 C 309.515625 148.007812 311.59375 148.625 313.667969 149.296875 C 319.332031 151.039062 324.003906 158.542969 323.976562 167.457031 Z M 323.976562 167.464844 "/><path style=" stroke:none;fill-rule:nonzero;fill:#f9971d;fill-opacity:1;" d="M 323.070312 152.75 C 324.683594 151.539062 326.285156 150.285156 327.863281 148.988281 C 332.203125 145.53125 334.023438 136.933594 331.230469 128.140625 C 329.890625 129.734375 328.527344 131.285156 327.132812 132.800781 C 323.367188 137.003906 322.113281 144.792969 323.070312 152.757812 Z M 323.070312 152.75 "/><path style=" stroke:none;fill-rule:nonzero;fill:#f9971d;fill-opacity:1;" d="M 321.105469 141.523438 C 319.171875 140.933594 317.238281 140.390625 315.304688 139.890625 C 310.007812 138.453125 305.242188 133.105469 302.285156 126.285156 C 304.265625 126.449219 306.25 126.65625 308.238281 126.90625 C 313.65625 127.507812 319.328125 133.484375 321.105469 141.523438 Z M 321.105469 141.523438 "/><path style=" stroke:none;fill-rule:nonzero;fill:#f9971d;fill-opacity:1;" d="M 316.4375 125.941406 C 317.589844 124.53125 318.722656 123.089844 319.828125 121.621094 C 322.882812 117.664062 322.628906 109.648438 318.273438 102.234375 C 317.433594 103.914062 316.558594 105.566406 315.65625 107.191406 C 313.234375 111.675781 313.839844 118.976562 316.4375 125.933594 Z M 316.4375 125.941406 "/><path style=" stroke:none;fill-rule:nonzero;fill:#f9971d;fill-opacity:1;" d="M 312.234375 116.199219 C 310.402344 116.035156 308.578125 115.902344 306.753906 115.808594 C 301.757812 115.492188 296.332031 111.449219 292.15625 105.644531 C 293.960938 105.464844 295.777344 105.316406 297.601562 105.207031 C 302.570312 104.839844 308.90625 109.277344 312.238281 116.199219 Z M 312.234375 116.199219 "/><g clip-rule="nonzero" clip-path="url(#088c1343f1)"><path style=" stroke:none;fill-rule:nonzero;fill:#f9971d;fill-opacity:1;" d="M 303.886719 101.53125 C 301.824219 99.753906 299.703125 98.046875 297.523438 96.398438 C 291.632812 91.894531 286.433594 85.171875 284.027344 78.667969 C 286.617188 80.070312 289.152344 81.546875 291.632812 83.09375 C 298.488281 87.308594 303.519531 95.128906 303.871094 101.53125 Z M 303.886719 101.53125 "/></g><path style=" stroke:none;fill-rule:nonzero;fill:#f9971d;fill-opacity:1;" d="M 187.507812 290.160156 C 185.75 293.542969 183.847656 296.886719 181.804688 300.195312 C 176.480469 309.308594 158.167969 315.648438 139.910156 311.394531 C 142.851562 308.808594 145.671875 306.140625 148.375 303.394531 C 155.976562 295.957031 170.445312 292.210938 187.511719 290.160156 Z M 187.507812 290.160156 "/><path style=" stroke:none;fill-rule:nonzero;fill:#f9971d;fill-opacity:1;" d="M 164.015625 290.773438 C 162.28125 287.488281 160.722656 284.167969 159.332031 280.820312 C 155.265625 271.699219 145.410156 264.269531 134.605469 259.519531 C 134.703125 263.015625 134.957031 266.535156 135.363281 270.074219 C 136.191406 279.667969 147.5625 289.738281 164.019531 290.773438 Z M 164.015625 290.773438 "/><path style=" stroke:none;fill-rule:nonzero;fill:#f9971d;fill-opacity:1;" d="M 156.597656 290.050781 C 154.359375 292.777344 152.003906 295.445312 149.539062 298.058594 C 143.015625 305.300781 126.199219 307.355469 111.058594 300.015625 C 114.183594 298.1875 117.21875 296.269531 120.164062 294.257812 C 128.382812 288.871094 141.871094 288.261719 156.597656 290.050781 Z M 156.597656 290.050781 "/><path style=" stroke:none;fill-rule:nonzero;fill:#f9971d;fill-opacity:1;" d="M 136.496094 285.710938 C 135.71875 282.335938 135.085938 278.964844 134.59375 275.605469 C 133.027344 266.386719 125.816406 257.558594 116.816406 251.140625 C 116.242188 254.394531 115.792969 257.695312 115.464844 261.042969 C 114.347656 270.078125 122.527344 281.441406 136.5 285.710938 Z M 136.496094 285.710938 "/><path style=" stroke:none;fill-rule:nonzero;fill:#f9971d;fill-opacity:1;" d="M 128.742188 283.011719 C 126.1875 285.039062 123.546875 287 120.820312 288.890625 C 113.542969 294.179688 98.492188 292.730469 86.417969 283.25 C 89.59375 282.148438 92.703125 280.953125 95.75 279.664062 C 104.199219 276.265625 116.421875 278.300781 128.75 283.011719 Z M 128.742188 283.011719 "/><path style=" stroke:none;fill-rule:nonzero;fill:#f9971d;fill-opacity:1;" d="M 112.082031 274.96875 C 112.113281 271.71875 112.257812 268.503906 112.515625 265.320312 C 113.050781 256.558594 108.277344 247.007812 101.113281 239.398438 C 99.996094 242.300781 98.972656 245.261719 98.046875 248.285156 C 95.347656 256.414062 100.605469 268.3125 112.074219 274.96875 Z M 112.082031 274.96875 "/><path style=" stroke:none;fill-rule:nonzero;fill:#f9971d;fill-opacity:1;" d="M 104.410156 270.074219 C 101.699219 271.402344 98.925781 272.65625 96.09375 273.835938 C 88.476562 277.191406 75.417969 272.976562 66.296875 262.1875 C 69.390625 261.757812 72.449219 261.238281 75.464844 260.628906 C 83.792969 259.089844 94.503906 263.273438 104.414062 270.074219 Z M 104.410156 270.074219 "/><path style=" stroke:none;fill-rule:nonzero;fill:#f9971d;fill-opacity:1;" d="M 91.195312 259.4375 C 91.886719 256.480469 92.664062 253.574219 93.53125 250.710938 C 95.769531 242.808594 93.214844 233.101562 87.90625 224.753906 C 86.367188 227.222656 84.902344 229.765625 83.507812 232.371094 C 79.574219 239.351562 82.207031 251.152344 91.195312 259.4375 Z M 91.195312 259.4375 "/><path style=" stroke:none;fill-rule:nonzero;fill:#f9971d;fill-opacity:1;" d="M 84.066406 252.257812 C 81.339844 252.921875 78.578125 253.507812 75.78125 254.015625 C 68.21875 255.546875 57.304688 249.261719 51 237.882812 C 53.914062 238.054688 56.800781 238.140625 59.660156 238.144531 C 67.542969 238.277344 76.542969 244.105469 84.066406 252.257812 Z M 84.066406 252.257812 "/><path style=" stroke:none;fill-rule:nonzero;fill:#f9971d;fill-opacity:1;" d="M 74.226562 240.027344 C 75.429688 237.476562 76.699219 234.980469 78.035156 232.542969 C 81.589844 225.785156 81.015625 216.386719 77.53125 207.703125 C 75.695312 209.699219 73.910156 211.765625 72.171875 213.898438 C 67.34375 219.601562 67.664062 230.792969 74.226562 240.027344 Z M 74.226562 240.027344 "/><path style=" stroke:none;fill-rule:nonzero;fill:#f9971d;fill-opacity:1;" d="M 68.179688 230.589844 C 65.578125 230.644531 62.957031 230.625 60.320312 230.539062 C 53.15625 230.425781 44.507812 222.730469 40.835938 211.355469 C 43.453125 212.039062 46.070312 212.648438 48.683594 213.179688 C 55.835938 214.75 62.984375 221.734375 68.179688 230.589844 Z M 68.179688 230.589844 "/><path style=" stroke:none;fill-rule:nonzero;fill:#f9971d;fill-opacity:1;" d="M 61.601562 217.617188 C 63.179688 215.542969 64.804688 213.527344 66.472656 211.566406 C 70.96875 206.121094 72.125 197.398438 70.410156 188.75 C 68.390625 190.253906 66.398438 191.824219 64.441406 193.460938 C 59.046875 197.800781 57.367188 208.015625 61.601562 217.617188 Z M 61.601562 217.617188 "/><g clip-rule="nonzero" clip-path="url(#cc37737214)"><path style=" stroke:none;fill-rule:nonzero;fill:#f9971d;fill-opacity:1;" d="M 57.21875 206.101562 C 54.855469 205.628906 52.488281 205.09375 50.121094 204.496094 C 43.65625 202.976562 37.328125 194.472656 36.074219 183.589844 C 38.324219 184.683594 40.582031 185.710938 42.851562 186.679688 C 49.042969 189.421875 54.238281 197.097656 57.21875 206.09375 Z M 57.21875 206.101562 "/></g><path style=" stroke:none;fill-rule:nonzero;fill:#f9971d;fill-opacity:1;" d="M 53.734375 193.132812 C 55.550781 191.566406 57.394531 190.054688 59.261719 188.597656 C 64.347656 184.53125 66.96875 176.765625 66.945312 168.46875 C 64.847656 169.492188 62.765625 170.574219 60.699219 171.714844 C 55.027344 174.71875 51.6875 183.671875 53.730469 193.132812 Z M 53.734375 193.132812 "/><g clip-rule="nonzero" clip-path="url(#40bfc30741)"><path style=" stroke:none;fill-rule:nonzero;fill:#f9971d;fill-opacity:1;" d="M 51.660156 179.8125 C 49.632812 178.914062 47.617188 177.964844 45.605469 176.960938 C 40.101562 174.320312 36.066406 165.53125 36.980469 155.554688 C 38.792969 156.945312 40.628906 158.292969 42.492188 159.589844 C 47.527344 163.214844 50.738281 171.144531 51.660156 179.8125 Z M 51.660156 179.8125 "/></g><path style=" stroke:none;fill-rule:nonzero;fill:#f9971d;fill-opacity:1;" d="M 51.03125 167.464844 C 52.964844 166.40625 54.90625 165.390625 56.863281 164.425781 C 62.203125 161.71875 66.035156 155.113281 67.574219 147.4375 C 65.496094 148.007812 63.417969 148.625 61.34375 149.296875 C 55.679688 151.039062 51.003906 158.542969 51.03125 167.457031 Z M 51.03125 167.464844 "/><path style=" stroke:none;fill-rule:nonzero;fill:#f9971d;fill-opacity:1;" d="M 51.949219 152.75 C 50.332031 151.539062 48.734375 150.285156 47.152344 148.984375 C 42.8125 145.527344 40.996094 136.929688 43.789062 128.136719 C 45.125 129.730469 46.492188 131.28125 47.882812 132.796875 C 51.660156 137.011719 52.90625 144.792969 51.949219 152.75 Z M 51.949219 152.75 "/><path style=" stroke:none;fill-rule:nonzero;fill:#f9971d;fill-opacity:1;" d="M 53.90625 141.523438 C 55.835938 140.933594 57.769531 140.390625 59.707031 139.890625 C 65.003906 138.453125 69.769531 133.105469 72.722656 126.285156 C 70.742188 126.449219 68.757812 126.65625 66.769531 126.90625 C 61.351562 127.507812 55.683594 133.484375 53.90625 141.523438 Z M 53.90625 141.523438 "/><path style=" stroke:none;fill-rule:nonzero;fill:#f9971d;fill-opacity:1;" d="M 58.574219 125.941406 C 57.417969 124.53125 56.289062 123.089844 55.183594 121.621094 C 52.125 117.664062 52.378906 109.648438 56.734375 102.234375 C 57.578125 103.914062 58.449219 105.566406 59.351562 107.191406 C 61.773438 111.675781 61.167969 118.976562 58.574219 125.933594 Z M 58.574219 125.941406 "/><path style=" stroke:none;fill-rule:nonzero;fill:#f9971d;fill-opacity:1;" d="M 62.769531 116.199219 C 64.601562 116.035156 66.425781 115.902344 68.25 115.808594 C 73.246094 115.492188 78.671875 111.449219 82.847656 105.644531 C 81.042969 105.464844 79.226562 105.316406 77.398438 105.207031 C 72.433594 104.839844 66.097656 109.277344 62.765625 116.199219 Z M 62.769531 116.199219 "/><g clip-rule="nonzero" clip-path="url(#d48e4b0be9)"><path style=" stroke:none;fill-rule:nonzero;fill:#f9971d;fill-opacity:1;" d="M 71.121094 101.53125 C 73.1875 99.753906 75.308594 98.046875 77.488281 96.398438 C 83.378906 91.894531 88.574219 85.171875 90.980469 78.667969 C 88.386719 80.070312 85.855469 81.546875 83.378906 83.09375 C 76.519531 87.308594 71.492188 95.128906 71.136719 101.53125 Z M 71.121094 101.53125 "/></g><g clip-rule="nonzero" clip-path="url(#57746beaf6)"><path style=" stroke:none;fill-rule:nonzero;fill:#f9971d;fill-opacity:1;" d="M 187.347656 260.019531 L 190.664062 267.472656 L 198.78125 268.328125 L 192.71875 273.789062 L 194.414062 281.769531 L 187.347656 277.691406 L 180.28125 281.769531 L 181.972656 273.789062 L 175.910156 268.328125 L 184.027344 267.472656 L 187.347656 260.019531 "/></g><g clip-rule="nonzero" clip-path="url(#7b95a86f71)"><path style=" stroke:none;fill-rule:nonzero;fill:#0d0149;fill-opacity:1;" d="M 269.542969 116.335938 C 267.132812 115.640625 264.738281 114.898438 262.332031 114.191406 C 236.371094 106.96875 210.117188 99.359375 183.558594 95.132812 C 155.578125 103.136719 128.464844 114.28125 103.46875 129.246094 C 102.25 129.972656 101.578125 130.785156 101.429688 132.167969 C 101.320312 133.179688 101.242188 133.179688 102.320312 133.179688 C 104.550781 133.179688 106.777344 133.179688 109.75 133.179688 C 123.480469 133.683594 138.066406 135.5625 151.566406 138.765625 C 152.460938 138.972656 152.464844 139.019531 152.269531 139.882812 C 151.972656 141.207031 151.660156 142.53125 151.34375 143.847656 C 144.929688 173.046875 142.816406 154.230469 172.570312 182.34375 C 174.632812 184.246094 176.632812 186.21875 178.632812 188.183594 C 179.011719 188.554688 179.183594 188.550781 179.597656 188.199219 C 194.332031 175.644531 210.941406 164.765625 229.503906 158.882812 C 230.53125 158.570312 230.523438 158.558594 230.332031 157.425781 C 229.097656 149.566406 227.9375 141.699219 226.722656 133.835938 C 226.554688 132.730469 226.539062 132.730469 227.566406 132.390625 C 237.890625 128.910156 248.316406 125.765625 258.730469 122.558594 C 259.828125 122.21875 259.835938 122.230469 259.839844 123.433594 C 259.84375 125.910156 259.820312 128.386719 259.847656 130.863281 C 260.113281 132.363281 257.324219 131.914062 255.914062 134.449219 C 254.15625 136.980469 254.449219 140.125 256.789062 142.429688 C 257.507812 143.136719 257.660156 143.738281 257.25 144.582031 C 252.402344 159.820312 244.726562 173.589844 235.566406 186.589844 C 238.851562 185.488281 242.050781 184.082031 245.484375 183.421875 C 246.09375 183.289062 246.355469 182.878906 246.640625 182.414062 C 252.253906 173.589844 256.035156 163.851562 258.628906 153.757812 C 257.953125 163.738281 254.085938 173.242188 250.164062 182.34375 C 252.039062 182.386719 253.902344 181.78125 255.78125 181.707031 C 256.757812 181.632812 257.203125 181.25 257.511719 180.34375 C 260.691406 171.574219 262.398438 162.359375 262.785156 153.046875 C 264.886719 161.921875 263.265625 171.164062 261.355469 179.929688 C 261.246094 180.421875 261.230469 180.691406 261.773438 180.84375 C 264.289062 181.46875 266.183594 183.105469 268.207031 184.589844 C 270.476562 171.144531 270.308594 156.742188 264.582031 144.125 C 264.339844 143.601562 264.378906 143.324219 264.867188 142.90625 C 268.996094 139.347656 267.355469 133.652344 263.378906 132.160156 C 262.894531 131.980469 262.675781 131.722656 262.683594 131.171875 C 262.703125 128.117188 262.699219 125.0625 262.679688 122.007812 C 262.308594 120.851562 267.738281 120.164062 268.78125 119.628906 C 270.261719 119.214844 270.265625 119.226562 270.375 117.660156 C 270.570312 116.90625 270.265625 116.527344 269.542969 116.335938 Z M 189.050781 116.78125 C 188.816406 122.519531 180.75 121.949219 180.910156 116.738281 C 181.015625 111.21875 188.972656 111.410156 189.050781 116.78125 Z M 226.832031 154.75 C 227.101562 154.773438 227.261719 154.789062 227.425781 154.804688 C 212.191406 159.894531 197.453125 166.699219 185.140625 177.1875 C 196.082031 165.570312 211.042969 157.441406 226.832031 154.75 Z M 185.429688 145.175781 C 184.851562 145.542969 184.371094 145.597656 183.722656 145.28125 C 172.488281 139.765625 160.640625 136.019531 148.417969 133.488281 C 139.644531 131.691406 130.742188 130.539062 121.847656 129.558594 C 122.464844 129.367188 123.113281 129.457031 123.75 129.441406 C 123.75 129.429688 123.75 129.421875 123.753906 129.410156 C 141.703125 130.828125 159.773438 133.347656 176.742188 139.601562 C 178.648438 139.992188 183.804688 143.027344 185.070312 142.402344 C 208.167969 129.914062 233.949219 122.210938 259.671875 117.699219 C 234.050781 124.089844 208.371094 131.816406 185.429688 145.175781 Z M 185.429688 145.175781 "/></g><g style="fill:#0d0149;fill-opacity:1;"><g transform="translate(108.93858, 224.162884)"><path style="stroke:none" d="M 1.421875 -2.28125 L 3.828125 -2.28125 L 3.828125 -21.8125 L 1.421875 -21.8125 L 1.421875 -24.09375 L 20.640625 -24.09375 L 20.640625 -17.671875 L 16.640625 -17.671875 L 16.640625 -21.609375 L 9.421875 -21.609375 L 9.421875 -13.8125 L 13.984375 -13.8125 L 13.984375 -15.875 L 16.53125 -15.875 L 16.53125 -9.25 L 13.984375 -9.25 L 13.984375 -11.328125 L 9.421875 -11.328125 L 9.421875 -2.484375 L 16.90625 -2.484375 L 16.90625 -7.109375 L 20.921875 -7.109375 L 20.921875 0 L 1.421875 0 Z M 1.421875 -2.28125 "/></g></g><g style="fill:#0d0149;fill-opacity:1;"><g transform="translate(130.300899, 224.162884)"><path style="stroke:none" d="M 11.015625 0.421875 C 10.316406 0.421875 9.6875 0.34375 9.125 0.1875 C 8.5625 0.0390625 8.066406 -0.148438 7.640625 -0.390625 C 7.210938 -0.640625 6.851562 -0.90625 6.5625 -1.1875 C 6.28125 -1.476562 6.070312 -1.75 5.9375 -2 L 5.796875 -2 L 5.796875 0 L 1.796875 0 L 1.796875 -7.046875 L 5.796875 -7.046875 L 5.796875 -5.5625 C 5.796875 -4.3125 6.234375 -3.425781 7.109375 -2.90625 C 7.984375 -2.394531 9.179688 -2.140625 10.703125 -2.140625 C 12.285156 -2.140625 13.460938 -2.460938 14.234375 -3.109375 C 15.003906 -3.753906 15.390625 -4.59375 15.390625 -5.625 C 15.390625 -6.132812 15.328125 -6.570312 15.203125 -6.9375 C 15.078125 -7.300781 14.863281 -7.613281 14.5625 -7.875 C 14.257812 -8.144531 13.851562 -8.378906 13.34375 -8.578125 C 12.84375 -8.773438 12.210938 -8.953125 11.453125 -9.109375 L 9.90625 -9.453125 C 8.726562 -9.679688 7.648438 -10 6.671875 -10.40625 C 5.703125 -10.8125 4.867188 -11.332031 4.171875 -11.96875 C 3.484375 -12.613281 2.945312 -13.382812 2.5625 -14.28125 C 2.1875 -15.1875 2 -16.25 2 -17.46875 C 2 -18.5 2.179688 -19.445312 2.546875 -20.3125 C 2.921875 -21.175781 3.453125 -21.914062 4.140625 -22.53125 C 4.828125 -23.15625 5.679688 -23.640625 6.703125 -23.984375 C 7.734375 -24.328125 8.90625 -24.5 10.21875 -24.5 C 10.925781 -24.5 11.5625 -24.425781 12.125 -24.28125 C 12.695312 -24.132812 13.191406 -23.941406 13.609375 -23.703125 C 14.035156 -23.472656 14.382812 -23.210938 14.65625 -22.921875 C 14.9375 -22.640625 15.148438 -22.375 15.296875 -22.125 L 15.421875 -22.125 L 15.421875 -24.09375 L 19.4375 -24.09375 L 19.4375 -17.046875 L 15.421875 -17.046875 L 15.421875 -18.5625 C 15.421875 -19.789062 14.992188 -20.660156 14.140625 -21.171875 C 13.296875 -21.691406 12.195312 -21.953125 10.84375 -21.953125 C 9.269531 -21.953125 8.117188 -21.625 7.390625 -20.96875 C 6.671875 -20.3125 6.3125 -19.523438 6.3125 -18.609375 C 6.3125 -18.078125 6.390625 -17.625 6.546875 -17.25 C 6.710938 -16.882812 6.972656 -16.5625 7.328125 -16.28125 C 7.691406 -16.007812 8.160156 -15.773438 8.734375 -15.578125 C 9.304688 -15.390625 10.007812 -15.203125 10.84375 -15.015625 L 12.28125 -14.734375 C 13.476562 -14.484375 14.554688 -14.15625 15.515625 -13.75 C 16.472656 -13.351562 17.28125 -12.84375 17.9375 -12.21875 C 18.59375 -11.59375 19.09375 -10.859375 19.4375 -10.015625 C 19.78125 -9.179688 19.953125 -8.210938 19.953125 -7.109375 C 19.953125 -6.023438 19.742188 -5.023438 19.328125 -4.109375 C 18.910156 -3.191406 18.316406 -2.394531 17.546875 -1.71875 C 16.773438 -1.050781 15.835938 -0.523438 14.734375 -0.140625 C 13.628906 0.234375 12.390625 0.421875 11.015625 0.421875 Z M 11.015625 0.421875 "/></g></g><g style="fill:#0d0149;fill-opacity:1;"><g transform="translate(150.662374, 224.162884)"><path style="stroke:none" d="M 12.53125 0.421875 C 10.800781 0.421875 9.273438 0.101562 7.953125 -0.53125 C 6.628906 -1.164062 5.503906 -2.039062 4.578125 -3.15625 C 3.660156 -4.269531 2.96875 -5.585938 2.5 -7.109375 C 2.03125 -8.628906 1.796875 -10.265625 1.796875 -12.015625 C 1.796875 -14.035156 2.078125 -15.828125 2.640625 -17.390625 C 3.203125 -18.960938 3.953125 -20.269531 4.890625 -21.3125 C 5.835938 -22.363281 6.9375 -23.15625 8.1875 -23.6875 C 9.445312 -24.226562 10.753906 -24.5 12.109375 -24.5 C 12.847656 -24.5 13.5 -24.425781 14.0625 -24.28125 C 14.625 -24.132812 15.113281 -23.941406 15.53125 -23.703125 C 15.945312 -23.472656 16.289062 -23.210938 16.5625 -22.921875 C 16.84375 -22.640625 17.050781 -22.363281 17.1875 -22.09375 L 17.390625 -22.09375 L 17.390625 -24.09375 L 21.40625 -24.09375 L 21.40625 -16.421875 L 17.390625 -16.421875 L 17.390625 -17.984375 C 17.390625 -19.160156 17.003906 -20.101562 16.234375 -20.8125 C 15.460938 -21.53125 14.34375 -21.890625 12.875 -21.890625 C 11.332031 -21.890625 10.125 -21.40625 9.25 -20.4375 C 8.375 -19.46875 7.9375 -17.945312 7.9375 -15.875 L 7.9375 -8.875 C 7.9375 -7.789062 8.070312 -6.867188 8.34375 -6.109375 C 8.625 -5.347656 9.007812 -4.710938 9.5 -4.203125 C 10 -3.703125 10.585938 -3.335938 11.265625 -3.109375 C 11.941406 -2.878906 12.6875 -2.765625 13.5 -2.765625 C 14.96875 -2.765625 16.210938 -3.148438 17.234375 -3.921875 C 18.265625 -4.691406 19.046875 -5.734375 19.578125 -7.046875 L 21.53125 -5.90625 C 21.238281 -5.03125 20.816406 -4.207031 20.265625 -3.4375 C 19.710938 -2.664062 19.050781 -1.988281 18.28125 -1.40625 C 17.507812 -0.832031 16.640625 -0.382812 15.671875 -0.0625 C 14.703125 0.257812 13.65625 0.421875 12.53125 0.421875 Z M 12.53125 0.421875 "/></g></g><g style="fill:#0d0149;fill-opacity:1;"><g transform="translate(172.266277, 224.162884)"><path style="stroke:none" d="M 0.484375 -2.28125 L 2.203125 -2.28125 L 9.703125 -24.09375 L 14.46875 -24.09375 L 21.953125 -2.28125 L 23.671875 -2.28125 L 23.671875 0 L 13.5625 0 L 13.5625 -2.28125 L 16.328125 -2.28125 L 14.671875 -7.359375 L 6.796875 -7.359375 L 5.140625 -2.28125 L 7.90625 -2.28125 L 7.90625 0 L 0.484375 0 Z M 7.484375 -9.734375 L 14.046875 -9.734375 L 10.796875 -19.875 L 10.671875 -19.875 Z M 7.484375 -9.734375 "/></g></g><g style="fill:#0d0149;fill-opacity:1;"><g transform="translate(195.043589, 224.162884)"><path style="stroke:none" d="M 1.421875 -2.28125 L 3.828125 -2.28125 L 3.828125 -21.8125 L 1.421875 -21.8125 L 1.421875 -24.09375 L 14.703125 -24.09375 C 17.234375 -24.09375 19.125 -23.535156 20.375 -22.421875 C 21.632812 -21.304688 22.265625 -19.664062 22.265625 -17.5 C 22.265625 -15.3125 21.582031 -13.601562 20.21875 -12.375 C 18.863281 -11.144531 16.921875 -10.53125 14.390625 -10.53125 L 9.421875 -10.53125 L 9.421875 -2.28125 L 12.703125 -2.28125 L 12.703125 0 L 1.421875 0 Z M 9.421875 -13.015625 L 12.84375 -13.015625 C 14.007812 -13.015625 14.921875 -13.296875 15.578125 -13.859375 C 16.234375 -14.421875 16.5625 -15.273438 16.5625 -16.421875 L 16.5625 -18.1875 C 16.5625 -19.34375 16.234375 -20.203125 15.578125 -20.765625 C 14.921875 -21.328125 14.007812 -21.609375 12.84375 -21.609375 L 9.421875 -21.609375 Z M 9.421875 -13.015625 "/></g></g><g style="fill:#0d0149;fill-opacity:1;"><g transform="translate(217.199681, 224.162884)"><path style="stroke:none" d="M 0.484375 -2.28125 L 2.203125 -2.28125 L 9.703125 -24.09375 L 14.46875 -24.09375 L 21.953125 -2.28125 L 23.671875 -2.28125 L 23.671875 0 L 13.5625 0 L 13.5625 -2.28125 L 16.328125 -2.28125 L 14.671875 -7.359375 L 6.796875 -7.359375 L 5.140625 -2.28125 L 7.90625 -2.28125 L 7.90625 0 L 0.484375 0 Z M 7.484375 -9.734375 L 14.046875 -9.734375 L 10.796875 -19.875 L 10.671875 -19.875 Z M 7.484375 -9.734375 "/></g></g><g style="fill:#0d0149;fill-opacity:1;"><g transform="translate(239.976993, 224.162884)"><path style="stroke:none" d="M 1.421875 -2.28125 L 3.828125 -2.28125 L 3.828125 -21.8125 L 1.421875 -21.8125 L 1.421875 -24.09375 L 12.671875 -24.09375 C 14.328125 -24.09375 15.859375 -23.820312 17.265625 -23.28125 C 18.679688 -22.738281 19.90625 -21.953125 20.9375 -20.921875 C 21.976562 -19.898438 22.789062 -18.640625 23.375 -17.140625 C 23.96875 -15.648438 24.265625 -13.953125 24.265625 -12.046875 C 24.265625 -10.140625 23.96875 -8.4375 23.375 -6.9375 C 22.789062 -5.4375 21.976562 -4.175781 20.9375 -3.15625 C 19.90625 -2.132812 18.679688 -1.351562 17.265625 -0.8125 C 15.859375 -0.269531 14.328125 0 12.671875 0 L 1.421875 0 Z M 9.421875 -2.484375 L 11.671875 -2.484375 C 12.816406 -2.484375 13.796875 -2.597656 14.609375 -2.828125 C 15.429688 -3.054688 16.097656 -3.414062 16.609375 -3.90625 C 17.128906 -4.40625 17.507812 -5.0625 17.75 -5.875 C 18 -6.695312 18.125 -7.695312 18.125 -8.875 L 18.125 -15.21875 C 18.125 -16.394531 18 -17.390625 17.75 -18.203125 C 17.507812 -19.023438 17.128906 -19.679688 16.609375 -20.171875 C 16.097656 -20.671875 15.429688 -21.035156 14.609375 -21.265625 C 13.796875 -21.492188 12.816406 -21.609375 11.671875 -21.609375 L 9.421875 -21.609375 Z M 9.421875 -2.484375 "/></g></g></g></svg>